<svg id="Layer_1" data-name="Layer 1" xmlns="http://www.w3.org/2000/svg" viewBox="0 0 219.65 150.68">
  <defs>
    <style>
      .cls-1 {
        fill: #ffdc25;
      }

      .cls-2 {
        fill: #dcb427;
      }

      .cls-3 {
        fill: #1e1e1e;
      }

      .cls-4 {
        fill: #414042;
      }

      .cls-5 {
        fill: #fff;
      }

      .cls-6 {
        fill: #efefef;
      }

      .cls-7 {
        fill: #f04e59;
      }

      .cls-8 {
        fill: #d1d3d4;
      }

      .cls-9 {
        fill: none;
        stroke: #f04e59;
        stroke-miterlimit: 10;
        stroke-width: 4px;
      }
      <!-- Animate -->
      @keyframes wobble {
        0% {
          transform: rotate(-25deg);
        }
        50% {
          transform: rotate(5deg);
        }
        100% {
          transform: rotate(-25deg);
        }
      }
      .compass-needle{
        transform-origin: center center;
        animation: wobble 3s ease infinite -1.5s;
      }
    </style>
  </defs>
  <title>pic_map</title>
  <polyline class="cls-1" points="11.92 19 65.32 0 65.32 131.5 11.92 145.5"/>
  <polyline class="cls-2" points="65.32 0 116.54 3.5 116.54 136.5 65.32 131.5"/>
  <rect class="cls-3" x="25.11" y="93.33" width="4.09" height="5.67"/>
  <polyline class="cls-1" points="116.54 3.5 166.42 0 166.42 127 116.54 136.5"/>
  <polyline class="cls-2" points="166.42 0 219.65 8.5 219.65 142 166.42 127"/>
  <circle class="cls-4" cx="27.09" cy="123.59" r="27.09"/>
  <circle class="cls-5" cx="27.09" cy="123.59" r="22.48"/>
  <path class="cls-6" d="M87.08,704c0.17-.27-20.55,11.08-20.55,11.08S78.18,717.77,87.08,704Z" transform="translate(-42.58 -572)"/>
  <rect class="cls-4" x="22.52" y="89.24" width="9.28" height="4.09"/>
  <g class="compass-needle">
    <polygon class="cls-7" points="29.45 124.84 27.38 123.58 25.31 122.32 30.65 115.87 35.98 109.41 32.72 117.12 29.45 124.84"/>
    <polygon class="cls-8" points="25.72 122.49 27.4 123.51 29.09 124.54 23.95 131.11 18.8 137.68 22.26 130.08 25.72 122.49"/>
  </g>
  <path class="cls-4" d="M73.19,657.28l3.72-6c1.7-2.74-2.62-5.25-4.32-2.52l-3.72,6c-1.7,2.74,2.62,5.25,4.32,2.52h0Z" transform="translate(-42.58 -572)"/>
  <path class="cls-4" d="M82.58,648.46a15.7,15.7,0,0,1,4.76-2c3.12-.76,1.8-5.58-1.33-4.82a20.15,20.15,0,0,0-6,2.52c-2.72,1.71-.21,6,2.52,4.32h0Z" transform="translate(-42.58 -572)"/>
  <path class="cls-4" d="M95,645.84a16.19,16.19,0,0,1,6.66.94c3,1.09,4.34-3.74,1.33-4.82a19.92,19.92,0,0,0-8-1.12c-3.2.21-3.22,5.21,0,5h0Z" transform="translate(-42.58 -572)"/>
  <path class="cls-4" d="M106.41,649.16l5,3.27a2.5,2.5,0,1,0,2.52-4.32l-5-3.27a2.5,2.5,0,0,0-2.52,4.32h0Z" transform="translate(-42.58 -572)"/>
  <path class="cls-4" d="M115.8,656.52a31.7,31.7,0,0,0,4.13,3.87,2.58,2.58,0,0,0,3.54,0,2.52,2.52,0,0,0,0-3.54,31.7,31.7,0,0,1-4.13-3.87,2.5,2.5,0,0,0-3.54,3.54h0Z" transform="translate(-42.58 -572)"/>
  <path class="cls-4" d="M125.52,666.14a26.16,26.16,0,0,0,4.58,4.32,2.52,2.52,0,0,0,3.42-.9,2.56,2.56,0,0,0-.9-3.42l-0.28-.22-0.43-.36q-0.54-.46-1-1a23.76,23.76,0,0,1-1.81-2,2.52,2.52,0,0,0-3.54,0,2.56,2.56,0,0,0,0,3.54h0Z" transform="translate(-42.58 -572)"/>
  <path class="cls-4" d="M138.92,674.07A14.89,14.89,0,0,0,145,677.4c3.11,0.83,4.44-4,1.33-4.82a9.38,9.38,0,0,1-3.87-2,2.56,2.56,0,0,0-3.54,0,2.52,2.52,0,0,0,0,3.54h0Z" transform="translate(-42.58 -572)"/>
  <path class="cls-4" d="M153.67,677.52a32.24,32.24,0,0,0,7.64-.87c3.13-.73,1.81-5.56-1.33-4.82a26.35,26.35,0,0,1-6.31.69c-3.22,0-3.22,5,0,5h0Z" transform="translate(-42.58 -572)"/>
  <path class="cls-4" d="M170,674.87a10.9,10.9,0,0,0,6.58-2.07,2.58,2.58,0,0,0,.9-3.42,2.52,2.52,0,0,0-3.42-.9,6.42,6.42,0,0,1-4.05,1.38c-3.22,0-3.22,5,0,5h0Z" transform="translate(-42.58 -572)"/>
  <path class="cls-4" d="M183.25,670.47l6.67-3.33c2.88-1.44.35-5.75-2.52-4.32l-6.67,3.33c-2.88,1.44-.35,5.75,2.52,4.32h0Z" transform="translate(-42.58 -572)"/>
  <path class="cls-4" d="M91.49,636.93l4.39-6a2.52,2.52,0,0,0-.9-3.42,2.56,2.56,0,0,0-3.42.9l-4.39,6a2.52,2.52,0,0,0,.9,3.42,2.56,2.56,0,0,0,3.42-.9h0Z" transform="translate(-42.58 -572)"/>
  <path class="cls-4" d="M100.22,627.19a9.79,9.79,0,0,1,1.25-1.3,0.9,0.9,0,1,0,.12-0.1,0.63,0.63,0,1,0,.21-0.14c0.26-.18.53-0.34,0.81-0.49a2.52,2.52,0,0,0,.9-3.42,2.55,2.55,0,0,0-3.42-.9,11.54,11.54,0,0,0-3.39,2.82,2.71,2.71,0,0,0-.73,1.77,2.5,2.5,0,0,0,4.27,1.77h0Z" transform="translate(-42.58 -572)"/>
  <path class="cls-4" d="M108.16,622.17a11.81,11.81,0,0,1,4.52-2.38c3.09-.88,1.78-5.7-1.33-4.82a17.61,17.61,0,0,0-6.72,3.66,2.52,2.52,0,0,0,0,3.54,2.55,2.55,0,0,0,3.54,0h0Z" transform="translate(-42.58 -572)"/>
  <path class="cls-4" d="M118.67,618.88a25.44,25.44,0,0,1,8,.42c3.14,0.69,4.48-4.13,1.33-4.82a29.77,29.77,0,0,0-9.35-.6c-3.17.31-3.21,5.32,0,5h0Z" transform="translate(-42.58 -572)"/>
  <path class="cls-4" d="M134.69,622.57a18.18,18.18,0,0,1,4.15,3.58,2.52,2.52,0,0,0,3.54,0,2.55,2.55,0,0,0,0-3.54,22.7,22.7,0,0,0-5.17-4.36,2.5,2.5,0,1,0-2.52,4.32h0Z" transform="translate(-42.58 -572)"/>
  <path class="cls-4" d="M144.44,630.76a21.89,21.89,0,0,1,5.18,4.29c2.15,2.4,5.68-1.14,3.54-3.54a26.41,26.41,0,0,0-6.2-5.07c-2.77-1.65-5.29,2.67-2.52,4.32h0Z" transform="translate(-42.58 -572)"/>
  <path class="cls-4" d="M158,637l8.35,0.88a2.52,2.52,0,0,0,2.5-2.5,2.56,2.56,0,0,0-2.5-2.5L158,632a2.52,2.52,0,0,0-2.5,2.5A2.56,2.56,0,0,0,158,637h0Z" transform="translate(-42.58 -572)"/>
  <path class="cls-4" d="M177.59,634.42l0-.12a2.55,2.55,0,0,0-2.41-1.84,2.7,2.7,0,0,0-.54,5.36,8.06,8.06,0,0,0,3.73-.58c1.13-.33,2.23-0.72,3.32-1.15a2.58,2.58,0,0,0,1.75-3.08,2.52,2.52,0,0,0-3.08-1.75c-0.89.35-1.78,0.68-2.69,1l-1.27.37c-0.24.07-1.64,0.23-.69,0.37l1.1,0.64-0.18-.16,0.73,1.77,0-.15-1.24,2.16,0.14-.09-1.26.34h0.15l-2.41-1.84,0,0.12c0.9,3.08,5.72,1.77,4.82-1.33h0Z" transform="translate(-42.58 -572)"/>
  <path class="cls-4" d="M190.33,634.74a28.36,28.36,0,0,0,6.26-2.59c2.81-1.57.29-5.89-2.52-4.32a22.62,22.62,0,0,1-5.07,2.08c-3.1.86-1.78,5.68,1.33,4.82h0Z" transform="translate(-42.58 -572)"/>
  <path class="cls-4" d="M203.94,631.59l5.4-2.17a2.58,2.58,0,0,0,1.75-3.08A2.52,2.52,0,0,0,208,624.6l-5.4,2.17a2.58,2.58,0,0,0-1.75,3.08,2.52,2.52,0,0,0,3.08,1.75h0Z" transform="translate(-42.58 -572)"/>
  <path class="cls-4" d="M217,626a29.92,29.92,0,0,0,8-3.16c2.79-1.6.28-5.92-2.52-4.32a25.07,25.07,0,0,1-6.78,2.65c-3.13.74-1.81,5.56,1.33,4.82h0Z" transform="translate(-42.58 -572)"/>
  <g>
    <g>
      <path class="cls-7" d="M241.84,623c-1.79,5.37-2.62.05-2.62,0.05-1,4.93-2.43-.34-2.43-0.34C233.85,622.25,233,615,233,615c-0.64-8.76,8.88-8.27,8.88-8.27V623Z" transform="translate(-42.58 -572)"/>
      <path class="cls-7" d="M241.7,623c1.79,5.37,2.62.05,2.62,0.05,1,4.93,2.43-.34,2.43-0.34,2.94-.44,3.83-7.73,3.83-7.73,0.64-8.76-8.88-8.27-8.88-8.27V623Z" transform="translate(-42.58 -572)"/>
    </g>
    <g>
      <g>
        <path class="cls-7" d="M231.3,626.68a0.87,0.87,0,0,0,1.17.48,0.94,0.94,0,0,0,.46-1.22,0.87,0.87,0,0,0-1.17-.48A0.94,0.94,0,0,0,231.3,626.68Z" transform="translate(-42.58 -572)"/>
        <path class="cls-7" d="M232,628.32a0.92,0.92,0,0,0,.77-1,0.9,0.9,0,0,0-1-.81,0.92,0.92,0,0,0-.77,1A0.9,0.9,0,0,0,232,628.32Z" transform="translate(-42.58 -572)"/>
      </g>
      <polygon class="cls-7" points="207.69 60.03 188.92 55.48 189.25 54.01 208.02 58.57 207.69 60.03"/>
      <g>
        <path class="cls-7" d="M249.88,631a0.87,0.87,0,0,0,1.17.48,0.94,0.94,0,0,0,.46-1.22,0.87,0.87,0,0,0-1.17-.48A0.94,0.94,0,0,0,249.88,631Z" transform="translate(-42.58 -572)"/>
        <path class="cls-7" d="M250.6,632.69a0.92,0.92,0,0,0,.77-1,0.9,0.9,0,0,0-1-.81,0.92,0.92,0,0,0-.77,1A0.9,0.9,0,0,0,250.6,632.69Z" transform="translate(-42.58 -572)"/>
      </g>
    </g>
    <g>
      <g>
        <path class="cls-7" d="M251.31,626.68a0.87,0.87,0,0,1-1.17.48,0.94,0.94,0,0,1-.46-1.22,0.87,0.87,0,0,1,1.17-.48A0.94,0.94,0,0,1,251.31,626.68Z" transform="translate(-42.58 -572)"/>
        <path class="cls-7" d="M250.58,628.32a0.92,0.92,0,0,1-.77-1,0.9,0.9,0,0,1,1-.81,0.92,0.92,0,0,1,.77,1A0.9,0.9,0,0,1,250.58,628.32Z" transform="translate(-42.58 -572)"/>
      </g>
      <polygon class="cls-7" points="189.76 60.03 208.53 55.48 208.2 54.01 189.43 58.57 189.76 60.03"/>
      <g>
        <path class="cls-7" d="M232.73,631a0.87,0.87,0,0,1-1.17.48,0.94,0.94,0,0,1-.46-1.22,0.87,0.87,0,0,1,1.17-.48A0.94,0.94,0,0,1,232.73,631Z" transform="translate(-42.58 -572)"/>
        <path class="cls-7" d="M232,632.69a0.92,0.92,0,0,1-.77-1,0.9,0.9,0,0,1,1-.81,0.92,0.92,0,0,1,.77,1A0.9,0.9,0,0,1,232,632.69Z" transform="translate(-42.58 -572)"/>
      </g>
    </g>
  </g>
  <g>
    <line class="cls-9" x1="157.82" y1="82.19" x2="172.97" y2="100.39"/>
    <line class="cls-9" x1="172.97" y1="82.19" x2="157.82" y2="100.39"/>
  </g>
</svg>
